<svg version="1.1" id="Layer_1" xmlns="http://www.w3.org/2000/svg" xmlns:xlink="http://www.w3.org/1999/xlink" x="0px" y="0px"
	 width="100%" viewBox="0 0 3810 2286" enable-background="new 0 0 3810 2286" xml:space="preserve">
<path fill="#FFFFFF" opacity="1.000000" stroke="none" 
	d="
M2398.000000,2288.000000 
	C1598.666870,2288.000000 800.333618,2288.000000 2.000321,2288.000000 
	C2.000214,1526.000244 2.000214,764.000549 2.000107,2.000628 
	C1271.999512,2.000419 2541.999023,2.000419 3811.999023,2.000209 
	C3811.999268,763.999329 3811.999268,1525.998657 3811.999512,2287.999023 
	C3341.000000,2288.000000 2870.000000,2288.000000 2398.000000,2288.000000 
M2924.006836,1991.629639 
	C3119.354492,1991.640259 3314.702393,1991.652588 3510.050049,1991.643066 
	C3512.698975,1991.642822 3515.347900,1991.366089 3519.830811,1991.628174 
	C3586.495361,1991.642822 3653.159668,1991.648071 3719.824219,1991.679199 
	C3734.934570,1991.686279 3733.668945,1992.773560 3733.668945,1977.524048 
	C3733.665283,1409.208496 3733.665771,840.893005 3733.665771,272.577484 
	C3733.665771,270.577545 3733.708496,268.576508 3733.657715,266.577850 
	C3733.457520,258.678650 3733.246094,258.486359 3724.925293,258.331848 
	C3723.592529,258.307098 3722.258789,258.328033 3720.925537,258.328033 
	C3381.602783,258.328125 3042.280273,258.326874 2702.957520,258.347046 
	C2699.306152,258.347290 2695.654541,258.628448 2690.176270,258.395386 
	C2688.844727,258.375732 2687.513184,258.338867 2686.181641,258.338867 
	C2459.104004,258.336243 2232.026367,258.334564 2004.948608,258.354645 
	C2001.965454,258.354889 1998.982422,258.631927 1994.165527,258.369263 
	C1993.498779,258.356781 1992.831909,258.333344 1992.165161,258.333344 
	C1365.833252,258.330536 739.501404,258.328766 113.169525,258.344452 
	C110.254219,258.344543 107.338905,258.593079 104.020462,258.743927 
	C103.885315,261.531128 103.678284,263.801147 103.678856,266.071136 
	C103.824471,840.716919 103.984459,1415.362671 104.169052,1990.008423 
	C104.169128,1990.258301 104.530281,1990.524658 104.753082,1990.753906 
	C104.984581,1990.991943 105.253014,1991.194092 105.806259,1991.672119 
	C109.153442,1991.672119 112.804886,1991.672119 116.456329,1991.672119 
	C183.122849,1991.672119 249.789352,1991.681396 316.455872,1991.665527 
	C333.212341,1991.661621 331.662262,1993.302979 331.662384,1976.891479 
	C331.665558,1478.559326 331.664978,980.227112 331.664978,481.894958 
	C331.664978,478.005859 331.665009,474.116760 331.665009,470.400024 
	C545.525818,470.400024 758.301758,470.400024 970.664978,470.400024 
	C971.232178,471.405701 971.525940,471.683228 971.526001,471.960785 
	C971.589783,976.958374 971.633850,1481.955933 971.696472,1986.953491 
	C971.696594,1987.935303 971.937622,1988.923462 972.133301,1989.895020 
	C972.191040,1990.182007 972.455994,1990.443970 972.669128,1990.678223 
	C972.891968,1990.922852 973.167053,1991.119995 973.806335,1991.672119 
	C977.059448,1991.672119 980.701172,1991.672119 984.342896,1991.672119 
	C1051.342773,1991.672119 1118.342529,1991.665405 1185.342407,1991.676880 
	C1201.264404,1991.679688 1199.662109,1992.823120 1199.662231,1977.004883 
	C1199.665649,1478.672729 1199.665161,980.340515 1199.665161,482.008362 
	C1199.665161,478.107849 1199.665161,474.207306 1199.665161,470.330383 
	C1389.766602,470.330383 1578.863647,470.330383 1768.334839,470.330383 
	C1768.334839,474.956451 1768.334839,478.926208 1768.334839,482.895966 
	C1768.334839,981.228149 1768.334229,1479.560303 1768.343750,1977.892456 
	C1768.343872,1981.888794 1768.481812,1985.885132 1768.180420,1990.990601 
	C1768.825806,1991.142212 1769.471191,1991.293945 1771.966431,1991.648560 
	C1808.946777,1991.656372 1845.927124,1991.696167 1882.907471,1991.663452 
	C1920.550537,1991.630005 1958.193481,1991.525146 1997.677856,1991.912720 
	C1999.009888,1991.940918 2000.341797,1991.994019 2001.673828,1991.994019 
	C2228.858887,1991.998413 2456.044189,1992.001465 2683.229248,1991.977295 
	C2686.207520,1991.976929 2689.185791,1991.631592 2694.008057,1991.646118 
	C2730.313965,1991.654785 2766.619629,1991.695312 2802.925537,1991.663330 
	C2841.892578,1991.629150 2880.859375,1991.526733 2920.995361,1991.833740 
	C2921.384277,1991.702026 2921.773438,1991.570190 2924.006836,1991.629639 
z"/>
<path fill="#000000" opacity="1.000000" stroke="none" 
	d="
M2919.826416,1991.453979 
	C2880.859375,1991.526733 2841.892578,1991.629150 2802.925537,1991.663330 
	C2766.619629,1991.695312 2730.313965,1991.654785 2692.468994,1990.968140 
	C2689.603516,1990.194458 2688.277100,1990.015137 2686.950684,1990.015015 
	C2459.084961,1990.001709 2231.219238,1989.996582 2003.353516,1990.060181 
	C2000.847778,1990.060913 1998.342163,1990.967773 1995.836548,1991.451660 
	C1958.193481,1991.525146 1920.550537,1991.630005 1882.907471,1991.663452 
	C1845.927124,1991.696167 1808.946777,1991.656372 1770.951660,1991.146973 
	C1769.621460,1990.128052 1769.160889,1989.873413 1768.555176,1989.881470 
	C1768.481812,1985.885132 1768.343872,1981.888794 1768.343750,1977.892456 
	C1768.334229,1479.560303 1768.334839,981.228149 1768.334839,482.895966 
	C1768.334839,478.926208 1768.334839,474.956451 1768.334839,470.330383 
	C1578.863647,470.330383 1389.766602,470.330383 1199.665161,470.330383 
	C1199.665161,474.207306 1199.665161,478.107849 1199.665161,482.008362 
	C1199.665161,980.340515 1199.665649,1478.672729 1199.662231,1977.004883 
	C1199.662109,1992.823120 1201.264404,1991.679688 1185.342407,1991.676880 
	C1118.342529,1991.665405 1051.342773,1991.672119 984.342896,1991.672119 
	C980.701172,1991.672119 977.059448,1991.672119 973.806335,1991.672119 
	C973.167053,1991.119995 972.891968,1990.922852 972.669128,1990.678223 
	C972.455994,1990.443970 972.191040,1990.182007 972.133301,1989.895020 
	C971.937622,1988.923462 971.696594,1987.935303 971.696472,1986.953491 
	C971.633850,1481.955933 971.589783,976.958374 971.526001,471.960785 
	C971.525940,471.683228 971.232178,471.405701 970.664978,470.400024 
	C758.301758,470.400024 545.525818,470.400024 331.665009,470.400024 
	C331.665009,474.116760 331.664978,478.005859 331.664978,481.894958 
	C331.664978,980.227112 331.665558,1478.559326 331.662384,1976.891479 
	C331.662262,1993.302979 333.212341,1991.661621 316.455872,1991.665527 
	C249.789352,1991.681396 183.122849,1991.672119 116.456329,1991.672119 
	C112.804886,1991.672119 109.153442,1991.672119 105.806259,1991.672119 
	C105.253014,1991.194092 104.984581,1990.991943 104.753082,1990.753906 
	C104.530281,1990.524658 104.169128,1990.258301 104.169052,1990.008423 
	C103.984459,1415.362671 103.824471,840.716919 103.678856,266.071136 
	C103.678284,263.801147 103.885315,261.531128 104.020462,258.743927 
	C107.338905,258.593079 110.254219,258.344543 113.169525,258.344452 
	C739.501404,258.328766 1365.833252,258.330536 1992.165161,258.333344 
	C1992.831909,258.333344 1993.498779,258.356781 1995.044922,259.345825 
	C1996.207886,262.868042 1996.491455,265.413696 1996.588257,268.883423 
	C1996.369141,272.805115 1996.308838,275.802734 1996.308838,278.800354 
	C1996.304688,775.175903 1996.304443,1271.551514 1996.314941,1767.927002 
	C1996.315063,1771.254883 1996.467773,1774.582764 1996.453125,1778.413818 
	C1996.933594,1779.094727 1997.510132,1779.272339 1999.013184,1779.545654 
	C2226.196533,1779.657227 2452.453369,1779.672607 2678.710205,1779.690796 
	C2694.965576,1779.692139 2693.697266,1780.992065 2693.697266,1764.512817 
	C2693.695068,1269.012939 2693.696045,773.513123 2693.686523,278.013275 
	C2693.686523,274.017456 2693.548828,270.021637 2693.528809,265.384888 
	C2693.055420,262.755493 2692.529297,260.766998 2692.003174,258.778473 
	C2695.654541,258.628448 2699.306152,258.347290 2702.957520,258.347046 
	C3042.280273,258.326874 3381.602783,258.328125 3720.925537,258.328033 
	C3722.258789,258.328033 3723.592529,258.307098 3724.925293,258.331848 
	C3733.246094,258.486359 3733.457520,258.678650 3733.657715,266.577850 
	C3733.708496,268.576508 3733.665771,270.577545 3733.665771,272.577484 
	C3733.665771,840.893005 3733.665283,1409.208496 3733.668945,1977.524048 
	C3733.668945,1992.773560 3734.934570,1991.686279 3719.824219,1991.679199 
	C3653.159668,1991.648071 3586.495361,1991.642822 3518.969482,1990.782471 
	C3518.564209,1987.951660 3519.020020,1985.966553 3519.562500,1983.050049 
	C3519.664551,1977.786133 3519.693848,1973.453613 3519.693848,1969.120972 
	C3519.696045,1640.812256 3519.695557,1312.503662 3519.695557,984.194946 
	C3519.695557,816.874207 3519.695557,649.553406 3519.695557,482.232666 
	C3519.695557,478.343781 3519.695557,474.454895 3519.695557,470.757263 
	C3505.233887,468.696960 2929.121338,469.349792 2921.689453,471.404510 
	C2921.689453,474.891235 2921.689453,478.528046 2921.689453,482.164825 
	C2921.689453,978.460876 2921.688477,1474.756958 2921.706787,1971.052979 
	C2921.707031,1974.708496 2921.969727,1978.364014 2921.940186,1982.760864 
	C2921.776367,1985.528198 2921.781982,1987.554077 2921.330322,1989.744507 
	C2920.215332,1990.214844 2919.866699,1990.729858 2919.826416,1991.453979 
z"/>
<path fill="#FE0F0F" opacity="1.000000" stroke="none" 
	d="
M2921.788086,1989.580078 
	C2921.781982,1987.554077 2921.776367,1985.528198 2922.869873,1982.757812 
	C3113.899658,1982.012207 3303.830322,1981.985229 3493.760742,1982.093262 
	C3502.332764,1982.098145 3510.904053,1983.324219 3519.475830,1983.981323 
	C3519.020020,1985.966553 3518.564209,1987.951660 3518.052490,1990.577637 
	C3515.347900,1991.366089 3512.698975,1991.642822 3510.050049,1991.643066 
	C3314.702393,1991.652588 3119.354492,1991.640259 2923.023438,1991.062988 
	C2922.040039,1990.496460 2921.788086,1989.580078 2921.788086,1989.580078 
z"/>
<path fill="#FE0F0F" opacity="1.000000" stroke="none" 
	d="
M2691.089844,258.586914 
	C2692.529297,260.766998 2693.055420,262.755493 2692.627197,265.380676 
	C2467.938477,266.017303 2244.204346,265.997345 2020.470215,266.098938 
	C2012.571655,266.102509 2004.673462,267.311920 1996.775146,267.959351 
	C1996.491455,265.413696 1996.207886,262.868042 1995.961792,259.551086 
	C1998.982422,258.631927 2001.965454,258.354889 2004.948608,258.354645 
	C2232.026367,258.334564 2459.104004,258.336243 2686.181641,258.338867 
	C2687.513184,258.338867 2688.844727,258.375732 2691.089844,258.586914 
z"/>
<path fill="#BF4A4A" opacity="1.000000" stroke="none" 
	d="
M1996.757202,1991.682129 
	C1998.342163,1990.967773 2000.847778,1990.060913 2003.353516,1990.060181 
	C2231.219238,1989.996582 2459.084961,1990.001709 2686.950684,1990.015015 
	C2688.277100,1990.015137 2689.603516,1990.194458 2691.546875,1990.868774 
	C2689.185791,1991.631592 2686.207520,1991.976929 2683.229248,1991.977295 
	C2456.044189,1992.001465 2228.858887,1991.998413 2001.673828,1991.994019 
	C2000.341797,1991.994019 1999.009888,1991.940918 1996.757202,1991.682129 
z"/>
<path fill="#404040" opacity="1.000000" stroke="none" 
	d="
M1768.367798,1990.436035 
	C1769.160889,1989.873413 1769.621460,1990.128052 1770.026611,1991.045410 
	C1769.471191,1991.293945 1768.825806,1991.142212 1768.367798,1990.436035 
z"/>
<path fill="#FE4C4C" opacity="1.000000" stroke="none" 
	d="
M2921.330566,1989.744507 
	C2921.788086,1989.580078 2922.040039,1990.496460 2922.101074,1990.967529 
	C2921.773438,1991.570190 2921.384277,1991.702026 2920.410889,1991.643799 
	C2919.866699,1990.729858 2920.215332,1990.214844 2921.330566,1989.744507 
z"/>
<path fill="#FE0000" opacity="1.000000" stroke="none" 
	d="
M1996.588257,268.883423 
	C2004.673462,267.311920 2012.571655,266.102509 2020.470215,266.098938 
	C2244.204346,265.997345 2467.938477,266.017303 2692.574219,266.021606 
	C2693.548828,270.021637 2693.686523,274.017456 2693.686523,278.013275 
	C2693.696045,773.513123 2693.695068,1269.012939 2693.697266,1764.512817 
	C2693.697266,1780.992065 2694.965576,1779.692139 2678.710205,1779.690796 
	C2452.453369,1779.672607 2226.196533,1779.657227 1998.849609,1779.206787 
	C1997.452759,1778.349243 1997.049438,1778.062012 1996.549316,1777.910645 
	C1996.467773,1774.582764 1996.315063,1771.254883 1996.314941,1767.927002 
	C1996.304443,1271.551514 1996.304688,775.175903 1996.308838,278.800354 
	C1996.308838,275.802734 1996.369141,272.805115 1996.588257,268.883423 
z"/>
<path fill="#FE0000" opacity="1.000000" stroke="none" 
	d="
M3519.562500,1983.050049 
	C3510.904053,1983.324219 3502.332764,1982.098145 3493.760742,1982.093262 
	C3303.830322,1981.985229 3113.899658,1982.012207 2923.039551,1982.016479 
	C2921.969727,1978.364014 2921.707031,1974.708496 2921.706787,1971.052979 
	C2921.688477,1474.756958 2921.689453,978.460876 2921.689453,482.164825 
	C2921.689453,478.528046 2921.689453,474.891235 2921.689453,471.404510 
	C2929.121338,469.349792 3505.233887,468.696960 3519.695557,470.757263 
	C3519.695557,474.454895 3519.695557,478.343781 3519.695557,482.232666 
	C3519.695557,649.553406 3519.695557,816.874207 3519.695557,984.194946 
	C3519.695557,1312.503662 3519.696045,1640.812256 3519.693848,1969.120972 
	C3519.693848,1973.453613 3519.664551,1977.786133 3519.562500,1983.050049 
z"/>
<path fill="#BF0000" opacity="1.000000" stroke="none" 
	d="
M1996.453125,1778.413818 
	C1997.049438,1778.062012 1997.452759,1778.349243 1997.922974,1779.111206 
	C1997.510132,1779.272339 1996.933594,1779.094727 1996.453125,1778.413818 
z"/>
</svg>